<svg xmlns="http://www.w3.org/2000/svg" xmlns:xlink="http://www.w3.org/1999/xlink" viewBox="0 0 462.48 204.25"><defs><style>.cls-1{fill:none;}.cls-2{clip-path:url(#clip-path);}.cls-3{clip-path:url(#clip-path-2);}.cls-4{fill:#56aadf;}.cls-5{fill:#f59d42;}.cls-6{fill:#ea5368;}.cls-7{fill:#247d64;}.cls-8{fill:#340e25;}.cls-9{fill:#7f1710;}.cls-10{fill:#192630;}</style><clipPath id="clip-path" transform="translate(-32.2 -32.01)"><path class="cls-1" d="M5.9,16V273h288V16ZM257,183.45H181.2V118.06H257Z"/></clipPath><clipPath id="clip-path-2" transform="translate(-32.2 -32.01)"><rect class="cls-1" x="31.75" y="32.11" width="204.18" height="202.66" transform="translate(-41.86 63.8) rotate(-23.29)"/></clipPath></defs><title>logo-ifm</title><g id="Ebene_2" data-name="Ebene 2"><g id="Layer_1" data-name="Layer 1"><g class="cls-2"><g id="Deco"><g class="cls-3"><g class="cls-3"><path class="cls-4" d="M88.24,225.39h0a101.65,101.65,0,0,0,69.51,8.07l-1.2-4.83A97.06,97.06,0,0,1,37.17,139.72l-5,.29a102.18,102.18,0,0,0,56,85.38" transform="translate(-32.2 -32.01)"/><path class="cls-5" d="M231.12,128.56a96.95,96.95,0,0,1-43.66,86.77l2.74,4.17a102,102,0,0,0,45.89-91.23A102.76,102.76,0,0,0,208.5,64.11l-3.62,3.43a97.73,97.73,0,0,1,26.24,61" transform="translate(-32.2 -32.01)"/><path class="cls-6" d="M41.12,106.08a98,98,0,0,1,6.23-15.6A97.21,97.21,0,0,1,177.81,47.35h0l2.24-4.45A102.16,102.16,0,0,0,36.36,104.62Z" transform="translate(-32.2 -32.01)"/><path class="cls-7" d="M128.68,39.31a94.85,94.85,0,0,0-79.4,52.14l4.14,2.09A90.38,90.38,0,0,1,199.76,72l3.35-3.2a95.28,95.28,0,0,0-74.43-29.48" transform="translate(-32.2 -32.01)"/><path class="cls-8" d="M58.6,183.75h0a90.19,90.19,0,0,1-11.3-74.49l-4.43-1.35A94.8,94.8,0,0,0,54.73,186.3h0A95.06,95.06,0,0,0,139.6,229l-.26-4.63a90.44,90.44,0,0,1-80.74-40.6" transform="translate(-32.2 -32.01)"/><path class="cls-9" d="M213.56,82l-3.87,2.54a90.33,90.33,0,0,1-39.76,132.6l1.84,4.26A95.06,95.06,0,0,0,213.56,82" transform="translate(-32.2 -32.01)"/></g></g></g></g><path class="cls-10" d="M168.14,166.46h-9.5l-6.27-50.24-18,34.47-18.42-34.47-6.27,50.24h-9.5L109.07,100h7.69l17.47,33L151.52,100h7.79Z" transform="translate(-32.2 -32.01)"/><path class="cls-10" d="M204.4,165.86h-4.8l-.6-3.24q-2.76,3.84-8.16,3.84-10.86,0-10.86-12.9v-17.1h5.4v15.6q0,9.6,6.84,9.6,4.68,0,6.78-3.36V136.46h5.4Z" transform="translate(-32.2 -32.01)"/><path class="cls-10" d="M225.06,166.46q-6.42,0-10.08-2.58l.66-5.22a12.09,12.09,0,0,0,3.69,2,15.14,15.14,0,0,0,5.49,1q5.88,0,5.88-3.66,0-3.3-5.88-4.86a30.75,30.75,0,0,1-3.39-1,11,11,0,0,1-2.85-1.5,7.42,7.42,0,0,1-2.07-2.37,8.23,8.23,0,0,1,1.77-9.9q2.7-2.52,8.34-2.52a18.13,18.13,0,0,1,8,1.92l-.66,4.92a10.82,10.82,0,0,0-7.2-2.64q-5.7,0-5.7,4a4,4,0,0,0,.3,1.63,2.92,2.92,0,0,0,1.08,1.18,10.39,10.39,0,0,0,2.1,1c.88.33,2,.69,3.36,1.09a23.1,23.1,0,0,1,2.73,1,11.56,11.56,0,0,1,2.73,1.65,8.62,8.62,0,0,1,2.1,2.52,7.26,7.26,0,0,1,.84,3.6,10.19,10.19,0,0,1-.48,3,6.78,6.78,0,0,1-1.74,2.82,9.74,9.74,0,0,1-3.45,2.1A15.66,15.66,0,0,1,225.06,166.46Z" transform="translate(-32.2 -32.01)"/><path class="cls-10" d="M252,129.86h-5.4v-6H252Zm0,36h-5.4v-29.4H252Z" transform="translate(-32.2 -32.01)"/><path class="cls-10" d="M269.62,165.86h-5.4v-45h5.4v28.83l10.8-13.23H287L274.9,150l12.42,15.87h-6.6l-11.1-15Z" transform="translate(-32.2 -32.01)"/><path class="cls-10" d="M316.06,129.86h-5.4v-6h5.4Zm0,36h-5.4v-29.4h5.4Z" transform="translate(-32.2 -32.01)"/><path class="cls-10" d="M352.9,165.86h-5.4v-16.2q0-4.74-1.77-6.87t-5.91-2.13q-5.88,0-8,3.84v21.36h-5.4v-29.4h4.2l.6,3.12a14.22,14.22,0,0,1,9.72-3.72q12,0,12,13.8Z" transform="translate(-32.2 -32.01)"/><path class="cls-10" d="M382.31,165.86h-5.76v-42h5.76Zm23.82,0h-6l-15.54-22.29,15.54-19.71h6l-15.54,19.71Z" transform="translate(-32.2 -32.01)"/><path class="cls-10" d="M435.46,162.14q-3.91,4.32-10.62,4.32a15.27,15.27,0,0,1-6.13-1.17,13.43,13.43,0,0,1-4.58-3.21,13.76,13.76,0,0,1-2.88-4.86,18.17,18.17,0,0,1-1-6.06,17.38,17.38,0,0,1,1-6.09,14.16,14.16,0,0,1,2.9-4.83,13.51,13.51,0,0,1,4.6-3.21,16.25,16.25,0,0,1,12.11,0,13.31,13.31,0,0,1,4.6,3.24,14.49,14.49,0,0,1,2.9,4.86,17.43,17.43,0,0,1,1,6A15.8,15.8,0,0,1,435.46,162.14Zm-4-18.72a8.28,8.28,0,0,0-6.66-2.76,8.41,8.41,0,0,0-6.7,2.73c-1.58,1.82-2.36,4.41-2.36,7.77s.78,6,2.36,7.77a8.41,8.41,0,0,0,6.7,2.73,8.22,8.22,0,0,0,6.71-2.82,11.61,11.61,0,0,0,2.34-7.68Q433.89,146.18,431.5,143.42Zm-9.91-13.56h-4.2v-6h4.2Zm10.69,0h-4.2v-6h4.2Z" transform="translate(-32.2 -32.01)"/><path class="cls-10" d="M460.08,162.14l-.78,4.32h-1.75c-2.63,0-4.57-.67-5.79-2a7.24,7.24,0,0,1-1.83-5.07V120.86h5.41v35.4a22.87,22.87,0,0,0,.15,3,3.54,3.54,0,0,0,.63,1.8,2.29,2.29,0,0,0,1.41.84A12.07,12.07,0,0,0,460.08,162.14Z" transform="translate(-32.2 -32.01)"/><path class="cls-10" d="M494.67,165.86h-5.4v-16.2q0-4.74-1.77-6.87t-5.91-2.13q-5.88,0-8,3.84v21.36h-5.4v-29.4h4.2l.6,3.12a14.22,14.22,0,0,1,9.72-3.72q12,0,12,13.8Z" transform="translate(-32.2 -32.01)"/></g></g></svg>